<svg viewBox="0 0 500 500" xmlns="http://www.w3.org/2000/svg">
  <defs>
    <linearGradient id="gradient-0" x1="208.148" x2="208.148" y1="6.537" y2="486.13" gradientUnits="userSpaceOnUse" spreadMethod="repeat">
      <stop offset="0.05" style="stop-color: rgb(253, 209, 122);"/>
      <stop offset="0.302" style="stop-color: rgb(239, 183, 38);"/>
      <stop offset="0.795" style="stop-color: rgb(246, 196, 122);"/>
    </linearGradient>
    <linearGradient id="gradient-1" x1="323.567" x2="323.567" y1="69.346" y2="441.369" gradientUnits="userSpaceOnUse" spreadMethod="repeat">
      <stop offset="0.05" style="stop-color: rgb(253, 209, 122);"/>
      <stop offset="0.302" style="stop-color: rgb(239, 183, 38);"/>
      <stop offset="0.795" style="stop-color: rgb(246, 196, 122);"/>
    </linearGradient>
    <linearGradient id="gradient-2" x1="248.597" x2="248.597" y1="132.664" y2="271.241" gradientUnits="userSpaceOnUse" spreadMethod="pad">
      <stop offset="0.235" style="stop-color: rgb(253, 209, 122);"/>
      <stop offset="0.506" style="stop-color: rgb(239, 183, 38);"/>
      <stop offset="0.801" style="stop-color: rgb(246, 196, 122);"/>
    </linearGradient>
  </defs>
  <g>
    <path d="M 393.098 140.184 C 393.098 140.184 364.038 151.145 318.095 146.522 C 272.152 141.899 235.441 130.659 206.897 112.457 C 178.353 94.255 164.257 79.633 132.96 57.709 C 101.663 35.785 84.655 51.152 81.151 54.999 C 76.32 60.303 69.281 71.865 68.551 94.737 C 67.821 117.609 68.933 153.822 72.583 175.477 C 76.233 197.132 88.155 244.337 95.942 270.373 C 103.729 296.409 117.259 333.985 127.817 359.185 C 138.375 384.385 162.929 430.629 176.419 428.511 C 189.909 426.393 210.79 387.654 221.496 365.268 C 218.819 388.87 208.113 482.306 188.891 485.956 C 169.669 489.606 149.191 455.777 136.142 435.143 C 73.091 335.441 28.522 185.496 23.571 99.628 C 18.62 13.76 76.025 6.275 100.595 6.837 C 129.961 7.509 147.623 23.995 162.446 41.001 C 177.269 58.007 221.293 103.699 249.52 116.911 C 310.963 145.672 390.748 140.698 393.098 140.184 Z" style="paint-order: fill; fill-rule: nonzero; fill: url(#gradient-0);"/>
    <path d="M 215.001 69.346 C 215.001 69.346 219.314 82.764 262.193 106.902 C 305.072 131.04 355.583 116.543 385.702 119.056 C 415.821 121.569 423.039 146.867 422.491 167.89 C 421.943 188.913 415.812 213.658 409.9 230.52 C 403.988 247.382 391.478 280.765 385.483 293.596 C 379.488 306.427 345.647 380.67 333.072 384.272 C 320.497 387.874 318.248 343.389 308.16 311.995 C 291.521 260.218 260.291 250.906 242.303 250.067 C 224.315 249.228 207.528 262.058 207.528 262.058 C 207.528 262.058 192.059 273.81 187.022 286.521 C 181.985 299.232 181.146 318.898 181.026 326.093 C 180.906 333.288 182.825 358.95 183.784 368.064 C 185.942 354.274 189.78 338.804 193.258 328.731 C 196.736 318.658 206.209 300.671 213.164 294.555 C 220.119 288.439 225.036 284.482 238.586 284.363 C 252.136 284.244 258.372 291.198 266.047 299.592 C 273.722 307.986 281.516 328.012 285.233 343.841 C 288.95 359.67 293.61 389.668 295.743 399.833 C 297.876 409.998 302.524 440.266 320.437 441.347 C 341.023 443.574 379.327 393.777 434.042 272.037 C 450.948 232.408 467.671 195.218 466.022 164.226 C 464.373 133.234 447.395 107.684 431.734 100.76 C 416.073 93.836 394.643 89.715 362.168 91.528 C 329.693 93.341 310.901 91.858 300.845 91.364 C 290.789 90.87 248.917 84.77 215.001 69.346 Z" style="paint-order: fill; fill-rule: nonzero; fill: url(#gradient-1);"/>
  </g>
    <style>
        path { fill: #000; }
        @media (prefers-color-scheme: dark) {
            path { fill: #FFF; }
        }
    </style>
</svg>